<?xml version="1.0" encoding="UTF-8" standalone="no"?>
<!-- Created with Inkscape (http://www.inkscape.org/) -->

<svg
   xmlns:dc="http://purl.org/dc/elements/1.1/"
   xmlns:cc="http://creativecommons.org/ns#"
   xmlns:rdf="http://www.w3.org/1999/02/22-rdf-syntax-ns#"
   xmlns:svg="http://www.w3.org/2000/svg"
   xmlns="http://www.w3.org/2000/svg"
   xmlns:sodipodi="http://sodipodi.sourceforge.net/DTD/sodipodi-0.dtd"
   xmlns:inkscape="http://www.inkscape.org/namespaces/inkscape"
   width="210mm"
   height="297mm"
   viewBox="0 0 210 297"
   version="1.1"
   id="svg8"
   inkscape:version="0.92.4 (fd57863, 2020-04-02)"
   sodipodi:docname="mytrash.svg">
  <defs
     id="defs2" />
  <sodipodi:namedview
     id="base"
     pagecolor="#ffffff"
     bordercolor="#666666"
     borderopacity="1.0"
     inkscape:pageopacity="0.0"
     inkscape:pageshadow="2"
     inkscape:zoom="0.21335283"
     inkscape:cx="-3463.9547"
     inkscape:cy="521.83684"
     inkscape:document-units="mm"
     inkscape:current-layer="layer1"
     showgrid="false"
     inkscape:window-width="1366"
     inkscape:window-height="709"
     inkscape:window-x="0"
     inkscape:window-y="28"
     inkscape:window-maximized="1"
     showguides="true"
     inkscape:guide-bbox="true">
    <inkscape:grid
       type="xygrid"
       id="grid880" />
  </sodipodi:namedview>
  <metadata
     id="metadata5">
    <rdf:RDF>
      <cc:Work
         rdf:about="">
        <dc:format>image/svg+xml</dc:format>
        <dc:type
           rdf:resource="http://purl.org/dc/dcmitype/StillImage" />
        <dc:title />
      </cc:Work>
    </rdf:RDF>
  </metadata>
  <g
     inkscape:label="Layer 1"
     inkscape:groupmode="layer"
     id="layer1">
    <rect
       style="fill:#ffd5d5;stroke-width:0.26458332"
       id="rect3834"
       width="308.66806"
       height="164.85681"
       x="-326.60617"
       y="23.6206" />
    <text
       xml:space="preserve"
       style="font-style:normal;font-weight:normal;font-size:10.58333302px;line-height:1.25;font-family:sans-serif;letter-spacing:0px;word-spacing:0px;fill:#000000;fill-opacity:1;stroke:none;stroke-width:0.26458332"
       x="274.41074"
       y="73.994041"
       id="text82"><tspan
         sodipodi:role="line"
         id="tspan80"
         x="274.41074"
         y="83.357811"
         style="stroke-width:0.26458332" /></text>
    <g
       id="g3823"
       inkscape:export-xdpi="96"
       inkscape:export-ydpi="96"
       transform="translate(230.66251,3.7203631)">
      <path
         inkscape:connector-curvature="0"
         inkscape:export-ydpi="96"
         inkscape:export-xdpi="96"
         id="path10"
         d="m -475.40892,45.81156 a 22.5,22.5 0 0 0 -22.49992,22.499918 22.5,22.5 0 0 0 22.49992,22.500429 22.5,22.5 0 0 0 10.07381,-2.388479 c -13.60575,-2.02751 -25.54942,-6.02202 -23.93653,-33.27032 5.12574,6.53531 30.70761,0.460137 31.56293,27.00714 a 22.5,22.5 0 0 0 4.79971,-13.84877 22.5,22.5 0 0 0 -22.49992,-22.499918 z m -9.04647,16.157148 c 2.1459,1.54103 17.08359,5.68191 23.7262,23.35878 a 22.5,22.5 0 0 0 1.82986,-1.76991 c -7.17211,-12.98947 -15.89531,-19.06452 -25.55606,-21.58887 z"
         style="opacity:1;fill:#008037;fill-opacity:1;stroke:none;stroke-width:1.2316339;stroke-miterlimit:4;stroke-dasharray:none;stroke-opacity:1;paint-order:stroke markers fill" />
      <g
         transform="matrix(1.0861865,0,0,1.0861865,38.424428,-5.722142)"
         id="g114">
        <text
           xml:space="preserve"
           style="font-style:normal;font-weight:normal;font-size:55.65711594px;line-height:1.25;font-family:sans-serif;letter-spacing:0px;word-spacing:0px;fill:#008037;fill-opacity:1;stroke:none;stroke-width:1.39142776"
           x="-446.49939"
           y="80.203178"
           id="text819"><tspan
             sodipodi:role="line"
             id="tspan817"
             x="-446.49939"
             y="80.203178"
             style="font-style:normal;font-variant:normal;font-weight:bold;font-stretch:normal;font-size:33.52220535px;font-family:Kinnari;-inkscape-font-specification:'Kinnari Bold';fill:#008037;fill-opacity:1;stroke-width:1.39142776"><tspan
   style="font-style:normal;font-variant:normal;font-weight:normal;font-stretch:normal;font-family:Kinnari;-inkscape-font-specification:Kinnari;stroke-width:1.39142776"
   id="tspan878">My</tspan>Trash </tspan></text>
        <text
           xml:space="preserve"
           style="font-style:normal;font-weight:normal;font-size:77.40910339px;line-height:1.25;font-family:sans-serif;text-align:end;letter-spacing:0px;word-spacing:0px;text-anchor:end;fill:#000000;fill-opacity:1;stroke:none;stroke-width:1.93522739"
           x="-314.22708"
           y="89.888557"
           id="text4676"
           transform="scale(1.0308299,0.97009216)"><tspan
             sodipodi:role="line"
             id="tspan4674"
             x="-314.22708"
             y="89.888557"
             style="font-style:italic;font-variant:normal;font-weight:normal;font-stretch:normal;font-size:8.4181118px;line-height:0;font-family:Kinnari;-inkscape-font-specification:'Kinnari Italic';text-align:end;letter-spacing:0px;word-spacing:0px;text-anchor:end;fill:#000000;fill-opacity:1;stroke-width:1.93522739">sampah bisa dadi duit</tspan></text>
      </g>
    </g>
    <text
       id="text3830"
       y="130.22603"
       x="274.41074"
       style="font-style:normal;font-weight:normal;font-size:10.58333302px;line-height:1.25;font-family:sans-serif;letter-spacing:0px;word-spacing:0px;fill:#000000;fill-opacity:1;stroke:none;stroke-width:0.26458332"
       xml:space="preserve"><tspan
         style="stroke-width:0.26458332"
         y="139.5898"
         x="274.41074"
         id="tspan3828"
         sodipodi:role="line" /></text>
    <g
       id="g3832"
       inkscape:export-xdpi="96"
       inkscape:export-ydpi="96"
       transform="translate(230.66251,3.7203631)">
      <path
         style="opacity:1;fill:#ffffff;fill-opacity:1;stroke:none;stroke-width:1.2316339;stroke-miterlimit:4;stroke-dasharray:none;stroke-opacity:1;paint-order:stroke markers fill"
         d="m -475.40892,103.68682 a 22.5,22.5 0 0 0 -22.49992,22.49992 22.5,22.5 0 0 0 22.49992,22.50043 22.5,22.5 0 0 0 10.07381,-2.38848 c -13.60575,-2.02751 -25.54942,-6.02202 -23.93653,-33.27032 5.12574,6.53531 30.70761,0.46013 31.56293,27.00714 a 22.5,22.5 0 0 0 4.79971,-13.84877 22.5,22.5 0 0 0 -22.49992,-22.49992 z m -9.04647,16.15715 c 2.1459,1.54103 17.08359,5.68191 23.7262,23.35878 a 22.5,22.5 0 0 0 1.82986,-1.76991 c -7.17211,-12.98947 -15.89531,-19.06452 -25.55606,-21.58887 z"
         id="path144"
         inkscape:export-xdpi="96"
         inkscape:export-ydpi="96"
         inkscape:connector-curvature="0" />
      <g
         id="g156"
         transform="matrix(1.0861865,0,0,1.0861865,38.424428,52.153125)"
         style="fill:#ffffff">
        <text
           id="text150"
           y="80.203178"
           x="-446.49939"
           style="font-style:normal;font-weight:normal;font-size:55.65711594px;line-height:1.25;font-family:sans-serif;letter-spacing:0px;word-spacing:0px;fill:#ffffff;fill-opacity:1;stroke:none;stroke-width:1.39142776"
           xml:space="preserve"><tspan
             style="font-style:normal;font-variant:normal;font-weight:bold;font-stretch:normal;font-size:33.52220535px;font-family:Kinnari;-inkscape-font-specification:'Kinnari Bold';fill:#ffffff;fill-opacity:1;stroke-width:1.39142776"
             y="80.203178"
             x="-446.49939"
             id="tspan148"
             sodipodi:role="line"><tspan
   id="tspan146"
   style="font-style:normal;font-variant:normal;font-weight:normal;font-stretch:normal;font-family:Kinnari;-inkscape-font-specification:Kinnari;fill:#ffffff;stroke-width:1.39142776">My</tspan>Trash </tspan></text>
        <text
           transform="scale(1.0308299,0.97009216)"
           id="text154"
           y="89.888557"
           x="-314.22708"
           style="font-style:normal;font-weight:normal;font-size:77.40910339px;line-height:1.25;font-family:sans-serif;text-align:end;letter-spacing:0px;word-spacing:0px;text-anchor:end;fill:#ffffff;fill-opacity:1;stroke:none;stroke-width:1.93522739"
           xml:space="preserve"><tspan
             style="font-style:italic;font-variant:normal;font-weight:normal;font-stretch:normal;font-size:8.4181118px;line-height:0;font-family:Kinnari;-inkscape-font-specification:'Kinnari Italic';text-align:end;letter-spacing:0px;word-spacing:0px;text-anchor:end;fill:#ffffff;fill-opacity:1;stroke-width:1.93522739"
             y="89.888557"
             x="-314.22708"
             id="tspan152"
             sodipodi:role="line">sampah bisa dadi duit</tspan></text>
      </g>
    </g>
    <g
       id="g155"
       inkscape:export-xdpi="96"
       inkscape:export-ydpi="96">
      <rect
         ry="50.844963"
         y="-144.18478"
         x="-1105.5414"
         height="497.94583"
         width="497.94583"
         id="rect99"
         style="fill:#ffffff;stroke-width:0.07000434" />
      <path
         style="opacity:1;fill:#008037;fill-opacity:1;stroke:none;stroke-width:6.35686779;stroke-miterlimit:4;stroke-dasharray:none;stroke-opacity:1;paint-order:stroke markers fill"
         d="m -856.56847,-11.342659 a 116.1299,116.1299 0 0 0 -116.12947,116.129439 116.1299,116.1299 0 0 0 116.12947,116.13214 116.1299,116.1299 0 0 0 51.99425,-12.32773 c -70.22375,-10.46465 -131.86896,-31.08165 -123.54431,-171.719091 26.45563,33.73089 158.49207,2.374936 162.90667,139.392731 a 116.1299,116.1299 0 0 0 24.77288,-71.47805 116.1299,116.1299 0 0 0 -116.12949,-116.129439 z m -46.6918,83.392316 c 11.0757,7.95376 88.17403,29.326203 122.45871,120.562373 a 116.1299,116.1299 0 0 0 9.44452,-9.13504 C -808.37466,116.43404 -853.39797,85.078657 -903.26027,72.049657 Z"
         id="path101"
         inkscape:export-xdpi="96"
         inkscape:export-ydpi="96"
         inkscape:connector-curvature="0" />
    </g>
  </g>
</svg>
